<svg xmlns="http://www.w3.org/2000/svg" viewBox="0 0 48 48">
  <path d="M11 5h23l7 7v29a3 3 0 0 1-3 3H11a3 3 0 0 1-3-3V8a3 3 0 0 1 3-3z" fill="#d9e8ed" stroke="#24323d" stroke-width="2.4"/>
  <path d="M7 8h22l7 7v25a3 3 0 0 1-3 3H7a3 3 0 0 1-3-3V11a3 3 0 0 1 3-3z" fill="#fffaf0" stroke="#24323d" stroke-width="2.6"/>
  <path d="M29 8v7h7" fill="#d7ecff" stroke="#24323d" stroke-width="2.2" stroke-linejoin="round"/>
  <path d="M10 16h13M10 21h18" stroke="#2a7f86" stroke-width="2.4" stroke-linecap="round"/>
  <rect x="10" y="28" width="4" height="8" rx="1" fill="#2a7f86"/>
  <rect x="16" y="25" width="4" height="11" rx="1" fill="#f2c14e"/>
  <rect x="22" y="30" width="4" height="6" rx="1" fill="#73b8be"/>
  <path d="M9 37h19" stroke="#51636d" stroke-width="1.8" stroke-linecap="round"/>
  <path d="M29 41l2-6 10-10 4 4-10 10z" fill="#f2c14e" stroke="#24323d" stroke-width="2" stroke-linejoin="round"/>
  <path d="M39 27l4 4M29 41l6-2" stroke="#24323d" stroke-width="1.8" stroke-linecap="round"/>
</svg>
